HIERARCHY
ROOT Hips
{
	OFFSET -0.001795 -0.223333 0.028219
	CHANNELS 6 Xposition Yposition Zposition Zrotation Yrotation Xrotation 
	JOINT LeftUpLeg
	{
		OFFSET 0.069520 -0.091406 -0.006815
		CHANNELS 3 Zrotation Yrotation Xrotation
		JOINT LeftLeg
		{
			OFFSET 0.034277 -0.375199 -0.004496
			CHANNELS 3 Zrotation Yrotation Xrotation
			JOINT LeftFoot
			{
				OFFSET -0.013596 -0.397961 -0.043693
				CHANNELS 3 Zrotation Yrotation Xrotation
				JOINT LeftToe
				{
					OFFSET 0.026358 -0.055791 0.119288
					CHANNELS 3 Zrotation Yrotation Xrotation
					End Site
					{
						OFFSET 0.000000 0.000000 0.000000
					}
				}
			}
		}
	}
	JOINT RightUpLeg
	{
		OFFSET -0.067670 -0.090522 -0.004320
		CHANNELS 3 Zrotation Yrotation Xrotation
		JOINT RightLeg
		{
			OFFSET -0.038290 -0.382569 -0.008850
			CHANNELS 3 Zrotation Yrotation Xrotation
			JOINT RightFoot
			{
				OFFSET 0.015774 -0.398415 -0.042312
				CHANNELS 3 Zrotation Yrotation Xrotation
				JOINT RightToe
				{
					OFFSET -0.025372 -0.048144 0.123348
					CHANNELS 3 Zrotation Yrotation Xrotation
					End Site
					{
						OFFSET 0.000000 0.000000 0.000000
					}
				}
			}
		}
	}
	JOINT Spine
	{
		OFFSET -0.002533 0.108963 -0.026696
		CHANNELS 3 Zrotation Yrotation Xrotation
		JOINT Spine1
		{
			OFFSET 0.005487 0.135180 0.001092
			CHANNELS 3 Zrotation Yrotation Xrotation
			JOINT Spine2
			{
				OFFSET 0.001457 0.052922 0.025425
				CHANNELS 3 Zrotation Yrotation Xrotation
				JOINT Neck
				{
					OFFSET -0.002778 0.213870 -0.042857
					CHANNELS 3 Zrotation Yrotation Xrotation
					JOINT Head
					{
						OFFSET 0.005152 0.064970 0.051349
						CHANNELS 3 Zrotation Yrotation Xrotation
						End Site
						{
							OFFSET 0.000000 0.000000 0.000000
						}
					}
				}
				JOINT LeftShoulder
				{
					OFFSET 0.078845 0.121749 -0.034090
					CHANNELS 3 Zrotation Yrotation Xrotation
					JOINT LeftArm
					{
						OFFSET 0.090977 0.030469 -0.008868
						CHANNELS 3 Zrotation Yrotation Xrotation
						JOINT LeftForeArm
						{
							OFFSET 0.259612 -0.012772 -0.027456
							CHANNELS 3 Zrotation Yrotation Xrotation
							JOINT LeftHand
							{
								OFFSET 0.249234 0.008986 -0.001171
								CHANNELS 3 Zrotation Yrotation Xrotation
								End Site
								{
									OFFSET 0.000000 0.000000 0.000000
								}
							}
						}
					}
				}
				JOINT RightShoulder
				{
					OFFSET -0.081759 0.118833 -0.038615
					CHANNELS 3 Zrotation Yrotation Xrotation
					JOINT RightArm
					{
						OFFSET -0.096012 0.032551 -0.009143
						CHANNELS 3 Zrotation Yrotation Xrotation
						JOINT RightForeArm
						{
							OFFSET -0.253742 -0.013329 -0.021401
							CHANNELS 3 Zrotation Yrotation Xrotation
							JOINT RightHand
							{
								OFFSET -0.255298 0.007772 -0.005559
								CHANNELS 3 Zrotation Yrotation Xrotation
								End Site
								{
									OFFSET 0.000000 0.000000 0.000000
								}
							}
						}
					}
				}
			}
		}
	}
}
MOTION
Frames: 5
Frame Time: 0.050000
0.027467 0.949087 -0.034995 2.411292 -2.148150 9.027783 3.037156 -0.479121 -5.915646 0.000692 0.239219 -6.860231 -2.572482 0.190263 12.437307 0.000000 0.000000 0.000000 -3.331201 0.365144 -2.799037 -8.033743 -0.549921 -12.476796 2.724161 -2.332967 17.573763 0.000000 0.000000 0.000000 4.959436 0.297855 -5.728724 0.161996 0.064485 -6.032516 -8.964996 7.120419 1.059684 13.130398 -5.801764 -16.642814 0.000000 0.000000 0.000000 -2.209729 -8.953969 2.598694 -20.362329 -47.558982 3.854228 107.975229 -66.563006 -83.027153 0.000000 0.000000 0.000000 0.039806 -3.410736 -1.216981 34.068998 34.056257 6.455541 -105.045794 37.185632 -36.955521 0.000000 0.000000 0.000000 
0.027062 0.949583 -0.035652 2.411943 -1.941847 9.206967 3.063287 -0.482748 -5.944126 0.189665 0.236542 -7.044017 -2.791887 -0.088093 12.594035 0.000000 0.000000 0.000000 -3.044973 0.368108 -2.938920 -8.364185 -0.568200 -12.602491 2.714771 -2.357336 17.692951 0.000000 0.000000 0.000000 4.826219 0.285461 -5.654710 0.258700 0.029959 -6.090254 -8.987124 6.804161 0.901784 13.041391 -5.821103 -16.365423 0.000000 0.000000 0.000000 -1.764488 -8.890106 2.631289 -19.441060 -47.969335 3.585664 104.734252 -65.165730 -78.133207 0.000000 0.000000 0.000000 -0.185057 -3.288280 -1.162530 34.038604 34.690624 6.663848 -104.363292 36.689583 -36.052311 0.000000 0.000000 0.000000 
0.026908 0.949957 -0.036240 2.377472 -1.801881 9.293849 3.117746 -0.478664 -5.875159 0.386577 0.236312 -7.277669 -2.852439 -0.138393 12.676057 0.000000 0.000000 0.000000 -2.991594 0.365769 -2.923520 -8.379840 -0.588585 -12.777354 2.763465 -2.313419 17.870804 0.000000 0.000000 0.000000 4.619254 0.260794 -5.410501 0.297550 0.019623 -6.230170 -8.825773 6.459457 0.867126 12.881866 -5.774105 -16.234906 0.000000 0.000000 0.000000 -1.557704 -9.105194 2.738690 -18.034000 -48.506275 3.159159 103.380730 -63.486991 -74.811929 0.000000 0.000000 0.000000 -0.359380 -3.223538 -1.129698 34.089577 35.135845 6.814636 -103.853719 35.943661 -35.030991 0.000000 0.000000 0.000000 
0.027017 0.950080 -0.036686 2.373543 -1.531837 9.322458 3.062492 -0.478125 -5.828493 0.572738 0.233820 -7.431013 -3.091610 -0.440092 12.822181 0.000000 0.000000 0.000000 -2.826180 0.344209 -2.703055 -8.660688 -0.622904 -13.041027 2.654123 -2.474700 17.934009 0.000000 0.000000 0.000000 4.487328 0.252071 -5.341363 0.263451 0.032220 -6.029341 -8.804426 5.970244 0.647376 12.558079 -5.707885 -15.748401 0.000000 0.000000 0.000000 -1.145899 -8.982528 2.749455 -17.134820 -49.620655 2.963545 101.790180 -62.053030 -71.565938 0.000000 0.000000 0.000000 -0.562468 -3.048840 -1.054994 34.390280 35.061895 6.879182 -103.802533 35.068756 -34.163879 0.000000 0.000000 0.000000 
0.027348 0.950134 -0.037057 2.369514 -1.417185 9.475864 2.942556 -0.486803 -5.905845 0.813973 0.221992 -7.400450 -3.268870 -0.793986 12.637675 0.000000 0.000000 0.000000 -2.860381 0.354760 -2.822640 -8.585531 -0.639572 -13.185839 2.571190 -2.648561 18.085385 0.000000 0.000000 0.000000 4.338996 0.245941 -5.317008 0.233955 0.053315 -6.298155 -8.813053 5.725589 0.696442 12.541980 -5.793355 -15.419985 0.000000 0.000000 0.000000 -0.842829 -9.130992 2.834872 -16.195500 -50.900098 2.718957 101.877751 -61.136952 -70.532531 0.000000 0.000000 0.000000 -0.760222 -3.251525 -1.115666 35.126661 34.908669 7.026109 -103.975116 34.758773 -33.988134 0.000000 0.000000 0.000000 
